<svg width="18" height="30" viewBox="0 0 18 30" fill="none" xmlns="http://www.w3.org/2000/svg">
<path d="M14.4332 29.4063L0.456246 16.1082C0.290348 15.9499 0.17256 15.7784 0.102883 15.5937C0.0332056 15.409 -0.00108007 15.2111 2.59216e-05 15C2.59216e-05 14.7889 0.0348646 14.591 0.104542 14.4063C0.174219 14.2216 0.291454 14.0501 0.456246 13.8918L14.4332 0.55409C14.8203 0.184696 15.3042 0 15.8848 0C16.4654 0 16.9631 0.197889 17.3779 0.593668C17.7926 0.989446 18 1.45119 18 1.97889C18 2.5066 17.7926 2.96834 17.3779 3.36412L5.18435 15L17.3779 26.6359C17.765 27.0053 17.9585 27.4607 17.9585 28.0021C17.9585 28.5435 17.7512 29.0116 17.3364 29.4063C16.9217 29.8021 16.4378 30 15.8848 30C15.3318 30 14.8479 29.8021 14.4332 29.4063Z" fill="white"/>
</svg>
