<svg width="18" height="30" viewBox="0 0 18 30" fill="none" xmlns="http://www.w3.org/2000/svg">
<path d="M3.56681 29.4063L17.5438 16.1082C17.7097 15.9499 17.8274 15.7784 17.8971 15.5937C17.9668 15.409 18.0011 15.2111 18 15C18 14.7889 17.9651 14.591 17.8955 14.4063C17.8258 14.2216 17.7085 14.0501 17.5438 13.8918L3.56681 0.55409C3.17972 0.184696 2.69585 0 2.1152 0C1.53456 0 1.03686 0.197889 0.622118 0.593668C0.207373 0.989446 -4.65951e-07 1.45119 -4.65951e-07 1.97889C-4.65951e-07 2.5066 0.207373 2.96834 0.622118 3.36412L12.8156 15L0.622118 26.6359C0.235022 27.0053 0.0414735 27.4607 0.0414735 28.0021C0.0414735 28.5435 0.248846 29.0116 0.663592 29.4063C1.07834 29.8021 1.56221 30 2.1152 30C2.6682 30 3.15207 29.8021 3.56681 29.4063Z" fill="white"/>
</svg>
